<svg width="16" height="16" viewBox="0 0 16 16" fill="none" xmlns="http://www.w3.org/2000/svg">
<path d="M1.44 10.712C1.404 10.808 1.32 10.844 1.236 10.844C1.128 10.844 1.008 10.784 0.936 10.664C0.852 10.52 0.708 9.836 0.684 9.68C0.516 8.792 0.492 7.868 0.528 6.968C0.576 6.056 0.78 3.92 1.476 3.224V3.212C1.584 3.08 1.74 3.008 1.896 3.008C2.484 3.008 2.868 4.16 3.012 4.616C3.312 5.54 3.408 6.524 3.66 7.472C3.804 7.148 4.56 5.132 4.704 4.796C4.884 4.352 5.052 3.896 5.316 3.488C5.52 3.176 5.772 2.792 6.18 2.792C6.324 2.792 6.468 2.84 6.6 2.948C7.308 3.464 7.428 5.48 7.464 6.26C7.512 7.388 7.464 8.516 7.404 9.644C7.392 9.908 7.344 10.184 7.236 10.424C7.212 10.58 7.092 10.664 6.948 10.664C6.636 10.664 6.456 10.34 6.408 10.076C6.312 9.584 6.36 9.068 6.372 8.576C6.396 7.496 6.48 6.416 6.456 5.336C6.456 4.856 6.396 3.98 6.132 3.572C5.964 3.692 5.856 3.884 5.772 4.064C5.532 4.508 5.364 4.988 5.196 5.456C5.052 5.852 4.272 8.144 4.104 8.528C3.996 8.78 3.756 8.948 3.492 8.948C2.784 8.948 2.544 7.688 2.448 7.16C2.4 6.932 2.184 5.612 2.16 5.384C2.088 4.892 2.004 4.388 1.812 3.92C1.26 4.748 1.164 6.212 1.152 7.172C1.14 8.012 1.188 8.852 1.296 9.68C1.344 9.944 1.38 10.22 1.404 10.484C1.452 10.544 1.464 10.64 1.44 10.712Z" fill="#FF0000"/>
<path d="M8.83639 10.1775C8.77038 10.2335 8.66817 10.2416 8.58744 10.2184C8.37406 10.1571 8.16019 9.85847 8.04835 9.68277C7.76142 9.76891 7.39456 9.85082 7.10045 9.76635C6.89284 9.70672 6.71419 9.56801 6.65762 9.352C6.64535 9.28605 6.64627 9.21765 6.66449 9.15421C6.70259 9.02157 6.79835 8.9055 6.90479 8.81746C7.10282 8.64961 7.31895 8.50568 7.53343 8.36752C7.47207 8.03776 7.46513 7.69243 7.55047 7.3736C7.61512 7.10501 7.76217 6.85384 7.95695 6.65384C8.31265 6.30654 9.14239 5.85193 9.64987 5.99769C9.74791 6.02584 9.8492 6.08615 9.91172 6.17277C9.97258 6.26516 10.0004 6.38553 9.99945 6.49761C9.99915 6.71602 9.90737 6.92688 9.7975 7.11381C9.42414 7.71823 8.67507 8.23971 8.09103 8.62131C8.15012 8.80683 8.23558 8.98744 8.3227 9.16228C8.49092 9.09823 8.65913 9.03418 8.81502 8.94786C8.95441 8.87553 9.07735 8.7735 9.20274 8.68466C9.24152 8.65834 9.28109 8.65098 9.32145 8.66258C9.39642 8.68411 9.45563 8.78227 9.40606 8.86791C9.18717 9.21705 8.89355 9.36994 8.52 9.51859C8.59319 9.63325 8.66804 9.74215 8.747 9.85847C8.75522 9.87331 8.78976 9.92693 8.79964 9.93601C8.80952 9.94509 8.8186 9.93521 8.83179 9.93276C8.85982 9.92208 8.87878 9.92128 8.90185 9.92791C8.98258 9.9511 9.02197 10.0748 8.92547 10.1282C8.89578 10.1447 8.86774 10.1553 8.83639 10.1775ZM8.02181 7.42782C7.95642 7.63377 7.94869 7.85629 7.969 8.06812C8.34353 7.80738 8.70985 7.5318 9.04984 7.21744C9.22149 7.05449 9.38247 6.86351 9.47755 6.64112C9.50731 6.581 9.53129 6.51922 9.52479 6.45492C9.52399 6.43597 9.49019 6.44499 9.47289 6.44002C9.35338 6.44315 9.23712 6.47842 9.12664 6.51536C8.67149 6.66555 8.17825 6.94838 8.02181 7.42782ZM7.15964 9.2777C7.19338 9.31236 7.23786 9.33138 7.284 9.34463C7.457 9.39432 7.67381 9.35671 7.84117 9.31738C7.77626 9.17389 7.71546 9.03781 7.66951 8.89352C7.53258 8.97904 7.40141 9.06622 7.27271 9.16659C7.2562 9.18058 7.1778 9.25794 7.15964 9.2777Z" fill="black"/>
<path d="M10.2138 12.9204C10.2155 13.0607 10.1009 13.134 10.0011 13.1281C9.93125 13.124 9.86315 13.0899 9.82737 13.0176C9.55171 12.4302 9.45561 11.012 9.49178 10.4031C9.44364 10.3702 9.40609 10.3279 9.37851 10.2862C9.31575 10.1623 9.39274 10.0466 9.49434 10.0226C9.51578 9.49294 9.56716 8.96506 9.62853 8.43777C9.66569 8.14946 9.89091 6.55 9.95801 6.26348C9.9839 6.16484 10.0104 6.05622 10.0844 5.99049C10.1596 5.9048 10.2518 5.8702 10.3517 5.87613C10.4415 5.88147 10.5384 5.93731 10.6029 6.0313C10.7684 6.28155 10.6381 7.12531 10.5904 7.42301C10.4949 8.01839 10.3801 8.60261 10.3146 9.19978C10.2874 9.48868 10.2596 9.78756 10.2424 10.077C10.7844 10.0591 11.5596 9.99499 11.771 9.97749C12.1733 9.95129 12.5644 9.94447 12.9654 9.93823L13.1122 8.98526C13.1623 8.64763 13.421 6.99006 13.5298 6.67595C13.5534 6.61725 13.5869 6.55913 13.591 6.48925C13.5981 6.36946 13.7045 6.26559 13.8243 6.2727C13.9241 6.27863 14.0198 6.35443 14.0737 6.45781C14.2168 6.74681 14.2055 7.10677 14.1759 7.43559C14.0944 8.30228 13.9436 9.15484 13.8022 10.018C13.8222 10.0192 13.8415 10.0303 13.8615 10.0315C14.1269 10.1174 14.0838 10.5055 13.8113 10.5394C13.7913 10.5382 13.7608 10.5465 13.7203 10.5541C13.6914 10.7026 13.6719 10.8617 13.6425 11.0203C13.6236 11.1694 13.508 12.1042 13.4791 12.2528C13.4626 12.362 13.396 12.8088 13.4195 12.9204C13.4511 13.0625 13.3242 13.1752 13.1944 13.1675C12.9149 13.1509 12.8366 12.445 12.8485 12.2454C12.81 11.7121 12.832 11.1725 12.884 10.6346C12.3226 10.6414 11.5404 10.655 11.3408 10.6432C10.9609 10.6306 10.5809 10.6181 10.2134 10.5662C10.1814 11.1052 10.1693 11.6455 10.1772 12.1869C10.1719 12.2767 10.2192 12.8305 10.2138 12.9204Z" fill="black"/>
</svg>
