<svg width="116" height="47" viewBox="0 0 116 47" fill="none" xmlns="http://www.w3.org/2000/svg">
<path fill-rule="evenodd" clip-rule="evenodd" d="M115.5 41.2273C115.5 44.8589 113.676 46.5502 110.406 46.5502H104.162V42.9158H110.406C110.984 42.9158 111.462 42.7984 111.657 42.5552C111.85 42.3119 112.04 41.9485 112.04 41.4648C112.04 40.9783 111.85 40.4975 111.657 40.2572C111.462 40.0139 111.08 39.8937 110.502 39.8937C107.524 39.7706 103.777 40.0139 103.777 34.6881C103.777 32.267 105.028 29.6055 108.39 29.6055H114.826V33.2372H108.869C108.294 33.2372 107.906 33.2372 107.62 33.4804C107.333 33.841 107.141 34.2045 107.141 34.814C107.141 35.4179 107.43 35.7813 107.81 36.0217C108.195 36.1447 108.58 36.2649 109.061 36.2649H110.789C112.613 36.2649 113.768 36.7486 114.535 37.5985C115.115 38.4456 115.5 39.536 115.5 41.2273ZM101.953 37.5985C101.186 36.7486 100.031 36.2649 98.2044 36.2649H96.4768C95.9955 36.2649 95.6106 36.1447 95.2303 36.0217C94.8453 35.7813 94.5566 35.4179 94.5566 34.814C94.5566 34.2045 94.6528 33.841 95.0378 33.4804C95.3242 33.2372 95.7068 33.2372 96.2843 33.2372H102.24V29.6055H95.8031C92.3454 29.6055 91.1904 32.2699 91.1904 34.6881C91.1904 40.0139 94.9416 39.7706 97.9157 39.8937C98.4932 39.8937 98.8781 40.0139 99.0706 40.2572C99.2608 40.4975 99.4556 40.9783 99.4556 41.4648C99.4556 41.9485 99.2608 42.3119 99.0706 42.5552C98.7819 42.7984 98.3969 42.9158 97.8218 42.9158H91.5778V46.5502H97.8218C101.087 46.5502 102.913 44.8561 102.913 41.2273C102.913 39.536 102.528 38.4456 101.953 37.5985ZM89.6552 43.0417H82.0685V39.6533H89.4628V36.2621H82.0685V33.1141H89.6552V29.6027H78.8995V46.5474H89.6552V43.0417ZM75.4371 30.4584C74.3831 29.7286 73.1343 29.6084 71.4982 29.6084H64.1039V46.5531H67.3691V40.3802H70.8315C71.9818 40.3802 72.6555 40.5033 73.1343 41.1071C73.7094 41.9542 73.7094 43.408 73.7094 44.4983V46.556H76.8784V43.2849C76.8784 41.7138 76.7845 40.984 76.4019 40.1398C76.1132 39.6562 75.5357 39.0495 74.7705 38.686C75.6319 38.3226 77.0732 36.8716 77.0732 34.2073C77.0732 32.2699 76.4958 31.1824 75.4371 30.4584ZM57.1885 29.6084H46.9093L42.7779 35.1775L38.839 29.6084H25.8696V46.5531H38.6465L42.7779 40.984L46.7168 46.5531H52.9609V40.8667H56.996C59.7824 40.8667 62.5664 39.8994 62.5664 35.1803C62.5664 30.5786 59.6838 29.6084 57.1885 29.6084ZM72.8456 36.6284C72.3667 36.8716 71.8855 36.8716 71.3081 36.8716L67.3691 36.9918V33.117H71.3081C71.8855 33.117 72.4583 33.117 72.8456 33.4804C73.2282 33.7237 73.5169 34.2045 73.5169 34.9314C73.5169 35.6582 73.2282 36.2649 72.8456 36.6284ZM57.1885 37.4755H52.9609V33.1198H57.1885C58.3411 33.1198 59.1063 33.7265 59.1063 35.1803C59.1063 36.6284 58.3411 37.4755 57.1885 37.4755ZM44.7966 38.0793L49.7919 31.4256V45.0993L44.7966 38.0793ZM37.0127 43.0417H29.041V39.6533H36.1489V36.2621H29.041V33.1141H37.1113L40.6652 38.0736L37.0127 43.0417ZM106.563 17.3857H101.953L95.8993 4.6793V17.3857H89.3665L88.1201 13.631H81.3948L80.1483 17.3857H76.4019C74.8643 17.3857 72.8456 16.8992 71.693 15.4454C70.639 13.9945 70.0616 12.057 70.0616 9.03496C70.0616 6.49082 70.3503 4.19566 71.7893 2.37842C72.7494 1.04769 74.4794 0.443848 76.6883 0.443848H79.7634V4.0726H76.6883C75.5357 4.0726 74.8643 4.31586 74.193 5.04275C73.6155 5.76965 73.3268 7.10038 73.3268 8.91476C73.3268 10.732 73.6155 12.0627 74.193 12.9098C74.6742 13.5137 75.5357 13.7569 76.4019 13.7569H77.8408L82.4535 0.446708H87.2562L92.6364 16.4213V0.446708H97.6317L103.301 12.1858V0.446708H106.566L106.563 17.3857ZM68.4278 0.443848H65.1579V17.3857H68.4278V0.443848ZM61.6063 1.17074C60.55 0.443847 59.3997 0.443848 57.7636 0.443848H50.3693V17.3857H53.5383V11.2128H56.9984C58.1509 11.2128 58.9185 11.333 59.3997 11.9397C59.9749 12.7868 59.8786 14.2406 59.8786 15.2079V17.3885H63.1438V13.9973C63.1438 12.5464 63.0476 11.8195 62.5687 10.9695C62.2823 10.4859 61.7049 9.88205 61.0312 9.5186C61.8974 9.03496 63.3363 7.70136 63.3363 5.04275C63.334 3.10532 62.6626 2.01497 61.6063 1.17074ZM48.0619 13.8771H40.569V10.4859H47.9656V6.97446H40.569V3.95241H48.0619V0.443848H37.3014V17.3857H48.0619V13.8771ZM34.9001 0.443848H29.6161L25.6772 11.9397L21.4495 0.443848H16.2618V16.4184L10.7877 0.443848H5.98491L0.219727 17.3857H3.67978L4.92859 13.631H11.6515L12.9003 17.3857H19.4331V4.0726L24.1396 17.3857H26.926L31.6325 4.0726V17.3857H34.9001V0.443848ZM86.9675 10.0022L84.7586 3.34571L82.5497 10.0022H86.9675ZM59.1063 7.34077C58.6298 7.70136 58.1486 7.70136 57.4772 7.70136H53.536V3.95241H57.4772C58.0523 3.95241 58.7237 3.95241 59.1063 4.19566C59.4913 4.55911 59.6838 5.04275 59.6838 5.76965C59.6838 6.49368 59.4913 7.10038 59.1063 7.34077ZM6.08116 10.0022L8.2877 3.34571L10.4966 10.0022H6.08116Z" fill="black"/>
</svg>
