<svg width="74" height="51" viewBox="0 0 74 51" fill="none" xmlns="http://www.w3.org/2000/svg">
<path d="M24.6592 14.7625C24.6592 18.4407 26.9135 21.5256 30.1171 22.7121V6.81299C26.9135 7.99949 24.6592 11.0844 24.6592 14.7625Z" fill="#006AC9"/>
<path d="M36.1689 6.81299V22.7121C39.3725 21.5256 41.6268 18.322 41.6268 14.7625C41.6268 11.0844 39.3725 7.99949 36.1689 6.81299Z" fill="#004A97"/>
<path d="M36.1689 22.7117C39.3725 21.5252 41.6268 18.3217 41.6268 14.7622L36.1689 22.7117Z" fill="#023563"/>
<path d="M40.084 0.0498047H33.2023C25.0155 0.0498047 18.3711 6.10095 18.3711 14.881C18.3711 22.9492 25.0155 29.475 33.2023 29.475H40.084C48.1522 29.475 55.5085 22.9492 55.5085 14.881C55.3898 6.10095 48.0336 0.0498047 40.084 0.0498047ZM33.2023 28.1698C25.7274 28.1698 19.7949 22.1187 19.7949 14.7624C19.7949 7.28744 25.846 1.2363 33.2023 1.2363C40.6773 1.2363 46.7284 7.28744 46.7284 14.7624C46.6098 22.2373 40.5586 28.1698 33.2023 28.1698Z" fill="#023563"/>
<path d="M3.18353 39.5604C3.18353 40.7469 4.01408 40.8655 4.84463 40.8655C8.16682 40.8655 9.35332 38.3739 9.35332 36.0009C9.35332 33.0346 7.45492 31.0176 4.48868 31.0176C3.89543 31.0176 3.53948 31.0176 3.30218 31.1362V39.5604H3.18353ZM1.64108 32.2041C1.64108 30.7803 0.929182 30.8989 0.217283 30.8989V30.543C0.810532 30.543 1.40378 30.543 1.99703 30.543C2.70893 30.543 3.53948 30.543 4.72598 30.543C8.76007 30.543 10.8958 33.2719 10.8958 36.0009C10.8958 37.5433 9.94657 41.4588 4.48868 41.4588C3.65813 41.4588 2.94623 41.4588 2.23433 41.4588C1.52243 41.4588 0.810532 41.4588 0.0986328 41.4588V41.1028C1.04783 40.9842 1.52243 40.9842 1.52243 39.9163V32.2041H1.64108Z" fill="#004A97"/>
<path d="M13.2695 31.8481C12.9135 31.8481 12.5576 31.4922 12.5576 31.0176C12.5576 30.6616 12.9135 30.3057 13.2695 30.3057C13.6254 30.3057 13.9814 30.6616 13.9814 31.0176C13.9814 31.4922 13.6254 31.8481 13.2695 31.8481ZM11.6084 40.9841H11.9643C12.4389 40.9841 12.6762 40.9842 12.6762 40.5096V36.2382C12.6762 35.5263 12.4389 35.4076 11.8457 35.1703V34.933C12.5576 34.6957 13.3881 34.4584 13.5068 34.3398C13.6254 34.2211 13.7441 34.2211 13.7441 34.2211C13.8627 34.2211 13.8627 34.3398 13.8627 34.4584V40.3909C13.8627 40.8655 14.2187 40.8655 14.6933 40.8655H14.9306V41.2214C14.456 41.2214 13.8627 41.2214 13.2695 41.2214C12.6762 41.2214 12.2016 41.2214 11.6084 41.2214V40.9841Z" fill="#004A97"/>
<path d="M16.354 36.3564C16.354 35.7632 16.2353 35.6445 15.4048 35.2886V35.0513C16.1167 34.814 16.7099 34.5767 17.4218 34.3394C17.4218 34.3394 17.5405 34.3394 17.5405 34.458V35.5259C18.371 34.9326 19.2016 34.3394 20.2694 34.3394C21.5746 34.3394 22.0492 35.2886 22.0492 36.4751V40.5091C22.0492 40.9837 22.4051 40.9837 22.8797 40.9837H23.117V41.3397C22.5238 41.3397 22.0492 41.3397 21.4559 41.3397C20.8627 41.3397 20.3881 41.3397 19.7948 41.3397V40.9837H20.0321C20.5067 40.9837 20.744 40.9837 20.744 40.5091V36.4751C20.744 35.6445 20.1508 35.1699 19.3202 35.1699C18.8456 35.1699 18.0151 35.5259 17.5405 35.8818V40.5091C17.5405 40.9837 17.8964 40.9837 18.371 40.9837H18.6083V41.3397C18.0151 41.3397 17.5405 41.3397 16.9472 41.3397C16.354 41.3397 15.8794 41.3397 15.2861 41.3397V40.9837H15.6421C16.1167 40.9837 16.354 40.9837 16.354 40.5091V36.3564Z" fill="#004A97"/>
<path d="M27.0326 36.5937C27.3886 36.5937 27.5072 36.3564 27.5072 36.2378C27.5072 35.4072 27.0326 34.814 26.2021 34.814C25.2529 34.814 24.541 35.5259 24.4223 36.5937H27.0326ZM24.3037 37.0683C24.3037 37.187 24.3037 37.4242 24.3037 38.0175C24.4223 39.4413 25.3715 40.7464 26.558 40.7464C27.3886 40.7464 28.1005 40.2718 28.6937 39.6786L28.931 39.9159C28.2191 40.8651 27.2699 41.6956 26.0834 41.6956C23.5918 41.6956 23.1172 39.3226 23.1172 38.2548C23.1172 35.1699 25.1342 34.3394 26.2021 34.3394C27.5072 34.3394 28.8124 35.1699 28.8124 36.831C28.8124 36.9496 28.8124 37.0683 28.8124 37.0683H28.6937H24.3037Z" fill="#004A97"/>
<path d="M29.168 40.9837H29.6426C30.1172 40.9837 30.3545 40.9837 30.3545 40.5091V36.1191C30.3545 35.6445 29.7612 35.5259 29.5239 35.4072V35.1699C30.7104 34.6953 31.3037 34.3394 31.4223 34.3394C31.541 34.3394 31.541 34.3394 31.541 34.5767V36.0005C31.8969 35.4072 32.6088 34.458 33.558 34.458C33.914 34.458 34.3886 34.6953 34.3886 35.2886C34.3886 35.7632 34.1513 36.1191 33.6767 36.1191C33.2021 36.1191 33.2021 35.7632 32.6088 35.7632C32.3715 35.7632 31.4223 36.1191 31.4223 37.0683V40.7464C31.4223 41.221 31.7783 41.221 32.1342 41.221H32.9648V41.577C32.1342 41.577 31.4223 41.577 30.8291 41.577C30.2358 41.577 29.5239 41.577 28.9307 41.577V40.9837H29.168Z" fill="#004A97"/>
<path d="M35.2197 39.204C35.457 40.2718 36.0503 41.1024 37.2368 41.1024C38.186 41.1024 38.5419 40.5091 38.5419 40.0345C38.5419 38.2548 35.1011 38.848 35.1011 36.2377C35.1011 35.4072 35.813 34.2207 37.4741 34.2207C37.9487 34.2207 38.6606 34.3394 39.2538 34.6953L39.3725 36.2377H39.0165C38.8979 35.2885 38.3046 34.6953 37.3554 34.6953C36.7622 34.6953 36.1689 35.0513 36.1689 35.7631C36.1689 37.5429 39.7284 37.0683 39.7284 39.4413C39.7284 40.5091 38.8979 41.577 36.9995 41.577C36.4062 41.577 35.6943 41.3397 35.1011 41.1024L34.9824 39.3226L35.2197 39.204Z" fill="#004A97"/>
<path d="M53.7283 33.2719H53.3724C53.1351 31.4922 51.8299 30.7803 50.0502 30.7803C48.2704 30.7803 45.6601 31.9668 45.6601 35.7636C45.6601 38.8485 47.9145 41.1028 50.2875 41.1028C51.8299 41.1028 53.1351 40.035 53.3724 38.3739L53.7283 38.4925L53.3724 40.7469C52.6605 41.1028 50.9994 41.5774 49.9315 41.5774C46.2534 41.5774 43.999 39.2044 43.999 35.7636C43.999 32.56 46.8466 30.3057 49.9315 30.3057C51.2367 30.3057 52.4232 30.6616 53.6097 31.1362L53.7283 33.2719Z" fill="#004A97"/>
<path d="M54.3223 40.9841H54.5596C55.0342 40.9841 55.2715 40.9841 55.2715 40.5095V31.8481C55.2715 30.7803 55.0342 30.7803 54.4409 30.6616V30.4243C55.0342 30.187 55.7461 29.9497 56.102 29.7124C56.2207 29.5937 56.3393 29.5938 56.458 29.5938C56.5766 29.5938 56.5766 29.7124 56.5766 29.8311V40.6282C56.5766 41.1028 56.9326 41.1028 57.4072 41.1028H57.6445V41.4587C57.1699 41.4587 56.5766 41.4587 55.9834 41.4587C55.3901 41.4587 54.9155 41.4587 54.3223 41.4587V40.9841Z" fill="#004A97"/>
<path d="M64.2889 40.5096C64.2889 40.7469 64.4076 40.7469 64.7635 40.7469C65.0008 40.7469 65.2381 40.7469 65.3568 40.7469V41.1029C64.6449 41.2215 63.4584 41.4588 63.1024 41.5775H62.9838V40.2723C62.0346 40.9842 61.3227 41.5775 60.2548 41.5775C59.4243 41.5775 58.5937 40.9842 58.5937 39.6791V35.645C58.5937 35.289 58.4751 34.8144 57.6445 34.8144V34.5771C58.2378 34.5771 59.4243 34.4585 59.6616 34.4585C59.7802 34.4585 59.7802 34.5771 59.7802 34.9331V38.9672C59.7802 39.4418 59.7802 40.7469 61.0854 40.7469C61.56 40.7469 62.2719 40.391 62.9838 39.7977V35.645C62.9838 35.289 62.2719 35.1704 61.6786 35.0517V34.8144C63.1024 34.6958 63.933 34.5771 64.0516 34.5771C64.1703 34.5771 64.1703 34.6958 64.1703 34.8144V40.5096H64.2889Z" fill="#004A97"/>
<path d="M67.3735 39.5603C67.3735 40.1536 67.9667 41.1028 69.0346 41.1028C70.6957 41.1028 71.4076 39.4417 71.4076 38.1365C71.4076 36.4754 70.1024 35.0516 68.9159 35.0516C68.3227 35.0516 67.8481 35.4076 67.4921 35.7635V39.5603H67.3735ZM67.3735 35.4076C67.9667 34.933 68.7973 34.3397 69.7465 34.3397C71.5262 34.3397 72.5941 35.8822 72.5941 37.6619C72.5941 39.679 71.0516 41.696 68.9159 41.696C67.7294 41.696 67.1362 41.3401 66.7802 41.1028L66.3056 41.4587L65.9497 41.3401C66.0683 40.3909 66.187 39.5603 66.187 38.6111V31.9668C66.187 30.8989 65.9497 30.8989 65.3564 30.7803V30.543C65.9497 30.3057 66.6616 30.0684 67.0175 29.8311C67.1362 29.7124 67.2548 29.7124 67.3735 29.7124C67.4921 29.7124 67.4921 29.8311 67.4921 29.9497V35.4076H67.3735Z" fill="#004A97"/>
<path d="M0.335447 50.3578C0.691396 50.3578 0.928696 50.3578 0.928696 49.8832V45.4932C0.928696 45.0186 0.572746 45.0186 0.335447 45.0186H0.216797V44.7812C0.572746 44.7812 1.04735 44.7812 1.52194 44.7812C1.99654 44.7812 2.47114 44.7812 2.82709 44.7812V45.0186H2.70844C2.35249 45.0186 2.11519 45.0186 2.11519 45.4932V49.8832C2.11519 50.3578 2.35249 50.3578 2.70844 50.3578H2.82709V50.5951C2.47114 50.5951 1.87789 50.5951 1.52194 50.5951C1.166 50.5951 0.572746 50.5951 0.335447 50.5951V50.3578Z" fill="#006AC9"/>
<path d="M2.82709 50.5951V50.3578H2.70844C2.35249 50.3578 1.99654 50.3578 1.99654 49.8832V45.4932C1.99654 45.0186 2.35249 45.0186 2.70844 45.0186H2.82709V44.7812C2.47114 44.7812 1.99654 44.7812 1.52194 44.7812C1.166 44.7812 0.691396 44.7812 0.335447 44.7812V45.0186H0.454097C0.810046 45.0186 1.166 45.0186 1.166 45.4932V49.8832C1.166 50.3578 0.810046 50.3578 0.454097 50.3578H0.335447V50.5951C0.691396 50.5951 1.166 50.5951 1.52194 50.5951C1.87789 50.5951 2.35249 50.5951 2.82709 50.5951ZM2.82709 50.7137C2.47114 50.7137 1.87789 50.7137 1.52194 50.7137C1.166 50.7137 0.572746 50.7137 0.335447 50.7137V50.3578H0.454097C0.810046 50.3578 1.04735 50.3578 1.04735 49.8832V45.4932C1.04735 45.0186 0.810046 45.0186 0.454097 45.0186H0.216797V44.7812C0.572746 44.7812 1.04735 44.7812 1.52194 44.7812C1.99654 44.7812 2.47114 44.7812 2.82709 44.7812V45.0186H2.70844C2.35249 45.0186 2.11519 45.0186 2.11519 45.4932V49.8832C2.11519 50.3578 2.35249 50.3578 2.70844 50.3578H2.82709V50.7137Z" fill="#006AC9"/>
<path d="M8.64197 48.934V45.7304C8.64197 45.0185 8.16737 44.8999 7.93007 44.8999H7.69277V44.6626C8.04872 44.6626 8.52332 44.6626 8.87927 44.6626C9.23522 44.6626 9.59117 44.6626 9.94712 44.6626V44.8999H9.82847C9.47252 44.8999 9.11657 45.0185 9.11657 45.9677V49.7645C9.11657 50.0018 9.11657 50.3578 9.11657 50.5951H8.76062L4.37058 45.7304V49.1713C4.37058 49.8832 4.48923 50.1205 5.20113 50.1205H5.31978V50.3578C4.96383 50.3578 4.60788 50.3578 4.25193 50.3578C3.89598 50.3578 3.54003 50.3578 3.06543 50.3578H3.18408C3.77733 50.3578 3.89598 50.0018 3.89598 49.2899V45.7304C3.89598 45.2558 3.54003 45.0185 3.18408 45.0185V44.7812C3.54003 44.7812 3.89598 44.7812 4.13328 44.7812C4.37058 44.7812 4.60788 44.7812 4.84518 44.7812L8.64197 48.934Z" fill="#006AC9"/>
<path d="M8.76062 50.7137H8.99792C8.99792 50.4764 8.99792 50.1205 8.99792 49.8832V46.0864C8.99792 45.0186 9.47252 45.0186 9.82847 45.0186H9.94712V44.7812C9.59117 44.7812 9.23522 44.7812 8.99792 44.7812C8.64197 44.7812 8.28602 44.7812 7.81142 44.7812V45.0186H7.93007C8.16737 45.0186 8.76062 45.1372 8.76062 45.8491V49.0526L4.96383 44.7812C4.72653 44.7812 4.48923 44.7812 4.25193 44.7812C3.89598 44.7812 3.65868 44.7812 3.30273 44.7812V45.0186H3.42138C3.77733 45.0186 4.25193 45.3745 4.25193 45.8491V49.4086C4.25193 50.1205 4.01463 50.4764 3.42138 50.4764H3.30273V50.7137C3.65868 50.7137 4.01463 50.7137 4.37058 50.7137C4.72653 50.7137 5.08248 50.7137 5.43843 50.7137V50.4764H5.20113C4.48923 50.4764 4.37058 50.2391 4.37058 49.4086V45.8491L8.76062 50.7137ZM9.11657 50.8324H8.76062L4.48923 46.0864V49.5272C4.48923 50.2391 4.60788 50.4764 5.20113 50.4764H5.43843V50.7137C5.08248 50.7137 4.72653 50.7137 4.37058 50.7137C4.01463 50.7137 3.65868 50.7137 3.18408 50.7137V50.3578H3.30273C3.89598 50.3578 4.01463 50.0018 4.01463 49.2899V45.7304C4.01463 45.2558 3.65868 45.0186 3.30273 45.0186H3.06543V44.7812C3.42138 44.7812 3.77733 44.7812 4.01463 44.7812C4.25193 44.7812 4.48923 44.7812 4.84518 44.7812L8.52332 48.934V45.8491C8.52332 45.1372 8.04872 45.1372 7.81142 45.1372H7.69277V44.8999C8.04872 44.8999 8.52332 44.8999 8.87927 44.8999C9.23522 44.8999 9.59117 44.8999 9.94712 44.8999V45.1372H9.82847C9.47252 45.1372 9.11657 45.1372 9.11657 46.205V50.0018C9.11657 50.2391 9.11657 50.4764 9.11657 50.8324Z" fill="#006AC9"/>
<path d="M11.2524 45.1367C10.6592 45.1367 10.5405 45.2554 10.4219 45.8486H10.1846C10.1846 45.6113 10.3032 45.374 10.3032 45.1367C10.3032 44.8994 10.3032 44.6621 10.3032 44.4248H10.5405C10.6592 44.6621 10.7778 44.6621 11.0151 44.6621H15.4052C15.6425 44.6621 15.8798 44.6621 15.8798 44.4248H16.1171C16.1171 44.6621 15.9984 44.8994 15.9984 45.1367C15.9984 45.374 15.9984 45.6113 15.9984 45.8486L15.7611 45.9673C15.7611 45.6113 15.7611 45.1367 15.1679 45.1367H13.7441V49.6454C13.7441 50.2386 13.9814 50.3573 14.456 50.3573H14.5746V50.5946C14.2187 50.5946 13.6254 50.5946 13.1508 50.5946C12.6762 50.5946 12.083 50.5946 11.727 50.5946V50.3573H11.8457C12.3203 50.3573 12.5576 50.3573 12.5576 49.6454V45.1367H11.2524Z" fill="#006AC9"/>
<path d="M14.5746 50.7137C14.2187 50.7137 13.6254 50.7137 13.1508 50.7137C12.6762 50.7137 12.083 50.7137 11.727 50.7137V50.3578H11.8457C12.3203 50.3578 12.5576 50.3578 12.5576 49.6459V45.1372H11.2524H12.6762V49.6459C12.6762 50.3578 12.4389 50.3578 11.9643 50.3578H11.8457V50.5951C12.2016 50.5951 12.7949 50.5951 13.2695 50.5951C13.6254 50.5951 14.2187 50.5951 14.5746 50.7137V50.4764H14.456C14.1 50.4764 13.7441 50.3578 13.7441 49.7645V45.2558H15.1679C15.7611 45.2558 15.7611 45.7304 15.8798 46.0864L16.1171 45.9677C16.1171 45.7304 16.1171 45.4931 16.1171 45.2558C16.1171 45.0185 16.1171 44.7812 16.2357 44.6626H16.1171C16.1171 44.8999 15.8798 44.8999 15.6425 44.8999H11.2524C11.0151 44.8999 10.7778 44.8999 10.7778 44.6626H10.4219C10.4219 44.8999 10.4219 45.1372 10.4219 45.3745C10.4219 45.6118 10.3032 45.8491 10.3032 46.0864H10.5405C10.6592 45.4931 10.7778 45.2558 11.3711 45.3745C10.7778 45.3745 10.7778 45.4931 10.6592 46.0864H10.1846C10.1846 45.8491 10.3032 45.6118 10.3032 45.3745C10.3032 45.1372 10.3032 44.8999 10.3032 44.6626H10.5405C10.5405 44.8999 10.7778 44.8999 11.0151 44.8999H15.4052C15.6425 44.8999 15.7611 44.8999 15.8798 44.6626H16.1171C16.1171 44.8999 15.9984 45.1372 15.9984 45.3745C15.9984 45.6118 15.9984 45.8491 15.9984 46.0864H15.6425C15.6425 45.7304 15.6425 45.2558 15.0492 45.2558H13.7441V49.7645C13.7441 50.3578 13.9814 50.4764 14.456 50.4764H14.6933L14.5746 50.7137Z" fill="#006AC9"/>
<path d="M16.4731 50.3578C16.8291 50.3578 17.0664 50.3578 17.0664 49.8832V45.4932C17.0664 45.0186 16.7104 45.0186 16.4731 45.0186H16.3545V44.7812C16.8291 44.7812 17.7783 44.7812 18.4902 44.7812C19.2021 44.7812 20.0326 44.7812 20.6259 44.7812C20.6259 45.1372 20.6259 45.7305 20.6259 46.0864H20.3886C20.3886 45.4932 20.2699 45.1372 19.3207 45.1372H18.1342V47.3915H19.2021C19.6767 47.3915 19.7953 47.1542 19.914 46.6797H20.1513C20.1513 47.0356 20.1513 47.3915 20.1513 47.6288C20.1513 47.9848 20.1513 48.2221 20.1513 48.578H19.914C19.914 48.1034 19.7953 47.7475 19.2021 47.7475H18.1342V49.7645C18.1342 50.3578 18.6088 50.3578 19.2021 50.3578C20.2699 50.3578 20.6259 50.2391 20.9818 49.2899H21.2191C21.1005 49.7645 20.9818 50.2391 20.9818 50.5951C20.3886 50.5951 19.4394 50.5951 18.7275 50.5951C18.0156 50.5951 16.9477 50.5951 16.4731 50.5951V50.3578Z" fill="#006AC9"/>
<path d="M20.8632 50.5951C20.9818 50.1205 20.9818 49.7645 21.1005 49.2899H20.9818C20.7445 50.2391 20.2699 50.3578 19.2021 50.3578C18.7275 50.3578 18.1342 50.3578 18.1342 49.7645V47.7475H19.2021C19.7953 47.7475 19.7953 48.1034 19.914 48.578H20.1513C20.1513 48.2221 20.1513 47.9848 20.1513 47.6288C20.1513 47.2729 20.1513 47.0356 20.1513 46.6797H19.914C19.914 47.1542 19.6767 47.3915 19.2021 47.3915H18.1342V45.1372H19.3207C20.1513 45.1372 20.3886 45.6118 20.3886 46.0864H20.6259C20.6259 45.8491 20.6259 45.4932 20.6259 45.2559C20.6259 45.1372 20.6259 45.0186 20.6259 44.8999C20.0326 44.8999 19.2021 44.8999 18.4902 44.8999C17.7783 44.8999 16.9477 44.8999 16.4731 44.8999V45.1372H16.5918C16.9477 45.1372 17.3037 45.1372 17.3037 45.6118V50.0018C17.3037 50.4764 16.9477 50.4764 16.5918 50.4764H16.4731V50.7137C16.9477 50.7137 17.8969 50.7137 18.7275 50.7137C19.3207 50.5951 20.2699 50.5951 20.8632 50.5951ZM20.8632 50.7137C20.2699 50.7137 19.3207 50.7137 18.6088 50.7137C17.8969 50.7137 16.8291 50.7137 16.3545 50.7137V50.3578H16.4731C16.8291 50.3578 17.0664 50.3578 17.0664 49.8832V45.4932C17.0664 45.1372 16.8291 45.0186 16.4731 45.0186H16.3545V44.7812C16.8291 44.7812 17.7783 44.7812 18.4902 44.7812C19.2021 44.7812 20.0326 44.7812 20.6259 44.7812C20.6259 44.8999 20.6259 45.0186 20.6259 45.2559C20.6259 45.4932 20.6259 45.8491 20.6259 46.0864L20.3886 46.205C20.3886 45.6118 20.2699 45.2559 19.4394 45.2559H18.2529V47.3915H19.2021C19.6767 47.3915 19.7953 47.1542 19.7953 46.6797H20.0326C20.0326 47.0356 20.0326 47.3915 20.0326 47.6288C20.0326 47.9848 20.0326 48.2221 20.0326 48.578H19.7953C19.7953 48.1034 19.6767 47.7475 19.2021 47.7475H18.2529V49.6459C18.2529 50.1205 18.7275 50.1205 19.2021 50.1205C20.2699 50.1205 20.6259 50.1205 20.8632 49.1713L21.1005 49.2899C21.1005 49.7645 20.9818 50.2391 20.8632 50.7137Z" fill="#006AC9"/>
<path d="M23.3545 47.6288H23.7104C24.5409 47.6288 25.0155 47.2729 25.0155 46.3237C25.0155 45.6118 24.541 45.1372 23.8291 45.1372C23.5918 45.1372 23.4731 45.1372 23.3545 45.1372V47.6288ZM22.2866 45.6118C22.2866 45.0186 21.9307 45.0186 21.6934 45.0186H21.5747V44.7812C21.812 44.7812 22.4053 44.7812 22.8799 44.7812C23.3545 44.7812 23.8291 44.7812 24.185 44.7812C25.2529 44.7812 26.202 45.0185 26.202 46.3237C26.202 47.0356 25.7274 47.5102 25.0155 47.8661L26.4393 50.0018C26.6766 50.3578 26.7953 50.4764 27.2699 50.4764V50.7137C27.0326 50.7137 26.6766 50.7137 26.4393 50.7137C26.202 50.7137 25.8461 50.7137 25.6088 50.7137C25.0155 49.8832 24.4223 48.934 23.8291 47.9848H23.2358V49.7645C23.2358 50.3578 23.5918 50.4764 23.9477 50.4764H24.0664V50.7137C23.5918 50.7137 23.1172 50.7137 22.6426 50.7137C22.2866 50.7137 21.812 50.7137 21.4561 50.7137V50.3578H21.5747C21.9307 50.3578 22.168 50.2391 22.168 49.8832V45.6118H22.2866Z" fill="#006AC9"/>
<path d="M23.8286 47.6288C24.6591 47.6288 25.1337 47.3915 25.1337 46.3237C25.1337 45.6118 24.6591 45.1372 23.9472 45.1372C23.7099 45.1372 23.5913 45.1372 23.4726 45.1372V47.6288H23.8286ZM23.354 47.6288V45.0186C23.4726 45.0186 23.5913 45.0186 23.8286 45.0186C24.5405 45.0186 25.1337 45.4931 25.1337 46.3237C25.1337 47.3915 24.6591 47.6288 23.8286 47.6288H23.354ZM23.354 47.8661H23.9472C24.5405 48.8153 25.0151 49.7645 25.727 50.5951C25.9643 50.5951 26.2016 50.5951 26.5575 50.5951C26.7948 50.5951 27.1508 50.5951 27.3881 50.5951V50.3578C27.0321 50.3578 26.7948 50.2391 26.5575 49.8832L25.1337 47.6288C25.8456 47.3915 26.3202 46.9169 26.3202 46.205C26.3202 45.0186 25.371 44.7812 24.3032 44.7812C23.8286 44.7812 23.4726 44.7812 22.998 44.7812C22.5234 44.7812 22.0488 44.7812 21.6929 44.7812V45.0186H21.8115C22.0488 45.0186 22.4048 45.0185 22.4048 45.7304V50.0018C22.4048 50.3578 22.0488 50.4764 21.8115 50.4764H21.5742V50.7137C21.9302 50.7137 22.4048 50.7137 22.7607 50.7137C23.2353 50.7137 23.7099 50.7137 24.1845 50.7137V50.4764H24.0659C23.7099 50.4764 23.354 50.4764 23.354 49.7645V47.8661ZM27.3881 50.7137C27.1508 50.7137 26.7948 50.7137 26.5575 50.7137C26.3202 50.7137 26.0829 50.7137 25.727 50.7137C25.1337 49.8832 24.5405 48.934 23.9472 47.9848H23.4726V49.7645C23.4726 50.3578 23.7099 50.3578 24.1845 50.3578H24.4218V50.5951C23.9472 50.5951 23.4726 50.5951 22.998 50.5951C22.6421 50.5951 22.1675 50.5951 21.8115 50.5951V50.3578H21.9302C22.2861 50.3578 22.5234 50.2391 22.5234 49.8832V45.6118C22.5234 45.0186 22.1675 45.0186 21.9302 45.0186H21.5742V44.7812C21.8115 44.7812 22.4048 44.7812 22.8794 44.7812C23.354 44.7812 23.8286 44.7812 24.1845 44.7812C25.2524 44.7812 26.2016 45.1372 26.2016 46.3237C26.2016 47.0356 25.727 47.5102 25.0151 47.8661L26.4389 50.0018C26.6762 50.3578 26.7948 50.4764 27.2694 50.4764L27.3881 50.7137Z" fill="#006AC9"/>
<path d="M33.0834 48.934V45.7304C33.0834 45.0185 32.6088 44.8999 32.3715 44.8999H32.1342V44.6626C32.4901 44.6626 32.9647 44.6626 33.3207 44.6626C33.6766 44.6626 34.0326 44.6626 34.3885 44.6626V44.8999H34.2699C33.9139 44.8999 33.558 45.0185 33.558 45.9677V49.7645C33.558 50.0018 33.558 50.3578 33.558 50.5951H33.202L28.812 45.7304V49.1713C28.812 49.8832 28.9306 50.1205 29.6425 50.1205H29.8798V50.3578C29.5239 50.3578 29.1679 50.3578 28.812 50.3578C28.456 50.3578 28.1001 50.3578 27.6255 50.3578H27.7441C28.3374 50.3578 28.456 50.0018 28.456 49.2899V45.7304C28.456 45.2558 28.1001 45.0185 27.6255 45.0185H27.5068V44.7812C27.8628 44.7812 28.1001 44.7812 28.456 44.7812C28.6933 44.7812 28.9306 44.7812 29.1679 44.7812L33.0834 48.934Z" fill="#006AC9"/>
<path d="M33.202 50.7137H33.4393C33.4393 50.4764 33.4393 50.1205 33.4393 49.8832V46.0864C33.4393 45.0186 33.9139 45.0186 34.2699 45.0186H34.3885V44.7812C34.0326 44.7812 33.6766 44.7812 33.4393 44.7812C33.0834 44.7812 32.7274 44.7812 32.2528 44.7812V45.0186H32.3715C32.6088 45.0186 33.202 45.1372 33.202 45.8491V49.0526L29.4052 44.7812C29.1679 44.7812 28.9306 44.7812 28.6933 44.7812C28.3374 44.7812 28.1001 44.7812 27.7441 44.7812V45.0186H27.8628C28.2187 45.0186 28.6933 45.3745 28.6933 45.8491V49.4086C28.6933 50.1205 28.456 50.4764 27.8628 50.4764H27.7441V50.7137C28.1001 50.7137 28.456 50.7137 28.812 50.7137C29.1679 50.7137 29.5239 50.7137 29.8798 50.7137V50.4764H29.7612C29.0493 50.4764 28.9306 50.2391 28.9306 49.4086V45.8491L33.202 50.7137ZM33.558 50.8324H33.202L28.9306 46.0864V49.5272C28.9306 50.2391 29.0493 50.4764 29.6425 50.4764H29.8798V50.7137C29.5239 50.7137 29.1679 50.7137 28.812 50.7137C28.456 50.7137 28.1001 50.7137 27.6255 50.7137V50.3578H27.7441C28.3374 50.3578 28.456 50.0018 28.456 49.2899V45.7304C28.456 45.2558 28.1001 45.0186 27.7441 45.0186H27.5068V44.7812C27.8628 44.7812 28.2187 44.7812 28.456 44.7812C28.6933 44.7812 28.9306 44.7812 29.2866 44.7812L32.9647 48.934V45.8491C32.9647 45.1372 32.4901 45.1372 32.2528 45.1372H32.0155V44.8999C32.3715 44.8999 32.8461 44.8999 33.202 44.8999C33.558 44.8999 33.9139 44.8999 34.2699 44.8999V45.1372H34.1512C33.7953 45.1372 33.4393 45.1372 33.4393 46.205V50.0018C33.558 50.2391 33.558 50.4764 33.558 50.8324Z" fill="#006AC9"/>
<path d="M36.9985 45.73L36.1679 48.1029H37.7104L36.9985 45.73ZM35.812 49.4081C35.6933 49.6454 35.5747 49.8827 35.5747 50.12C35.5747 50.3573 35.9306 50.3573 36.1679 50.3573H36.2866V50.5946C35.9306 50.5946 35.5747 50.5946 35.2187 50.5946C34.8628 50.5946 34.6255 50.5946 34.2695 50.5946V50.3573C34.6255 50.3573 34.8628 50.12 34.9814 49.764L36.2866 45.8486C36.4052 45.4927 36.5239 45.1367 36.6425 44.7808C36.8798 44.6621 37.2358 44.5435 37.4731 44.4248C37.4731 44.4248 37.4731 44.4248 37.5917 44.4248C37.5917 44.5435 37.5917 44.5435 37.7104 44.6621L39.3715 49.1708C39.4901 49.4081 39.6088 49.764 39.7274 50.0013C39.8461 50.2386 39.9647 50.3573 40.3207 50.3573V50.5946C39.9647 50.5946 39.6088 50.5946 39.1342 50.5946C38.6596 50.5946 38.3036 50.5946 37.829 50.5946V50.3573H37.9477C38.185 50.3573 38.4223 50.3573 38.4223 50.12C38.4223 50.0013 38.3036 49.764 38.3036 49.5267L37.9477 48.5775H36.0493L35.812 49.4081Z" fill="#006AC9"/>
<path d="M36.2866 48.103H37.829L36.9985 45.73L36.2866 48.103ZM36.1679 48.103L36.9985 45.6113L37.829 48.103H36.1679ZM37.829 50.5946C38.3036 50.5946 38.6596 50.5946 39.0155 50.5946C39.3715 50.5946 39.7274 50.5946 40.202 50.5946V50.3573C39.9647 50.3573 39.7274 50.2387 39.6088 50.0014C39.4901 49.8827 39.3715 49.5268 39.3715 49.1708L37.829 44.7808C37.829 44.6621 37.829 44.6621 37.7104 44.5435C37.5917 44.6621 37.2358 44.7808 36.9985 44.8994C36.9985 45.2554 36.7612 45.6113 36.6425 45.9673L35.3374 49.8827C35.2187 50.2386 34.8628 50.4759 34.5068 50.4759V50.7132C34.7441 50.7132 35.1001 50.7132 35.3374 50.7132C35.6933 50.7132 36.0493 50.7132 36.2866 50.7132V50.4759C36.0493 50.4759 35.5747 50.4759 35.5747 50.12C35.5747 50.0013 35.6933 49.7641 35.812 49.4081L36.0493 48.4589H38.0663L38.4223 49.4081C38.5409 49.6454 38.5409 49.8827 38.5409 50.0014C38.5409 50.2387 38.185 50.2387 37.9477 50.2387V50.5946H37.829ZM40.3207 50.7132C39.9647 50.7132 39.6088 50.7132 39.1342 50.7132C38.6596 50.7132 38.3036 50.7132 37.829 50.7132V50.3573H37.9477C38.185 50.3573 38.4223 50.3573 38.4223 50.12C38.4223 50.0013 38.3036 49.7641 38.3036 49.5268L37.9477 48.5776H36.0493L35.812 49.4081C35.6933 49.6454 35.5747 49.8827 35.5747 50.0014C35.5747 50.2387 35.9306 50.2387 36.1679 50.2387H36.2866V50.4759C35.9306 50.4759 35.5747 50.4759 35.2187 50.4759C34.8628 50.4759 34.6255 50.4759 34.2695 50.4759V50.3573C34.6255 50.3573 34.8628 50.12 34.9814 49.8827L36.2866 45.9673C36.4052 45.6113 36.5239 45.2554 36.6425 44.8994C36.8798 44.7808 37.2358 44.6621 37.3544 44.5435C37.3544 44.5435 37.3544 44.5435 37.4731 44.5435H37.5917C37.5917 44.6621 37.5917 44.6621 37.7104 44.7808L39.3715 49.1708C39.4901 49.5268 39.6088 49.7641 39.7274 50.0014C39.8461 50.2387 39.9647 50.3573 40.202 50.3573H40.3207V50.7132Z" fill="#006AC9"/>
<path d="M40.6772 45.1367C40.084 45.1367 39.9653 45.2554 39.8467 45.8486H39.6094C39.6094 45.6113 39.728 45.374 39.728 45.1367C39.728 44.8994 39.728 44.6621 39.728 44.4248H39.9653C40.084 44.6621 40.2026 44.6621 40.4399 44.6621H44.83C45.0673 44.6621 45.3046 44.6621 45.3046 44.4248H45.5419C45.5419 44.6621 45.4232 44.8994 45.4232 45.1367C45.4232 45.374 45.4232 45.6113 45.4232 45.8486L45.1859 45.9673C45.1859 45.6113 45.0673 45.1367 44.5927 45.1367H43.1689V49.6454C43.1689 50.2386 43.4062 50.3573 43.8808 50.3573H43.9994V50.5946C43.6435 50.5946 43.0502 50.5946 42.5756 50.5946C42.101 50.5946 41.5078 50.5946 41.1518 50.5946V50.3573H41.2705C41.7451 50.3573 41.9824 50.3573 41.9824 49.6454V45.1367H40.6772Z" fill="#006AC9"/>
<path d="M43.9989 50.7137C43.643 50.7137 43.0497 50.7137 42.5751 50.7137C42.1005 50.7137 41.5073 50.7137 41.1513 50.7137V50.3578H41.27C41.7446 50.3578 41.8632 50.3578 41.9819 49.6459V45.1372H40.6767H42.1005V49.6459C42.1005 50.3578 41.8632 50.3578 41.3886 50.3578H41.27V50.5951C41.6259 50.5951 42.2192 50.5951 42.6938 50.5951C43.0497 50.5951 43.643 50.5951 43.9989 50.7137V50.4764H43.8803C43.5243 50.4764 43.1684 50.3578 43.1684 49.7645V45.2558H44.5922C45.1854 45.2558 45.1854 45.7304 45.3041 46.0864L45.5414 45.9677C45.5414 45.7304 45.5414 45.4931 45.5414 45.2558C45.5414 45.0185 45.5414 44.7812 45.66 44.6626H45.5414C45.5414 44.8999 45.3041 44.8999 45.0668 44.8999H40.6767C40.4394 44.8999 40.3208 44.8999 40.2021 44.6626H40.0835C40.0835 44.8999 40.0835 45.1372 40.0835 45.3745C40.0835 45.6118 39.9648 45.8491 39.9648 46.0864H40.2021C40.3208 45.4931 40.4394 45.2558 41.0327 45.3745C40.4394 45.3745 40.4394 45.4931 40.3208 46.0864H39.9648C39.9648 45.8491 40.0835 45.6118 40.0835 45.3745C40.0835 45.1372 40.0835 44.8999 40.0835 44.6626H40.3208C40.3208 44.8999 40.5581 44.8999 40.7954 44.8999H45.1854C45.4227 44.8999 45.5414 44.8999 45.66 44.6626H45.8973C45.8973 44.8999 45.7787 45.1372 45.7787 45.3745C45.7787 45.6118 45.7787 45.8491 45.7787 46.0864L45.4227 46.205C45.4227 45.8491 45.4227 45.3745 44.8295 45.3745H43.5243V49.8832C43.5243 50.4764 43.7616 50.5951 44.2362 50.5951H44.4735L43.9989 50.7137Z" fill="#006AC9"/>
<path d="M45.7793 50.3578C46.2539 50.3578 46.4912 50.3578 46.4912 49.8832V45.4932C46.4912 45.0186 46.1352 45.0186 45.8979 45.0186H45.7793V44.7812C46.1352 44.7812 46.6098 44.7812 47.0844 44.7812C47.559 44.7812 48.0336 44.7812 48.3896 44.7812V45.0186H48.2709C47.915 45.0186 47.6777 45.0186 47.6777 45.4932V49.8832C47.6777 50.3578 48.0336 50.3578 48.2709 50.3578H48.3896V50.5951C48.0336 50.5951 47.4404 50.5951 47.0844 50.5951C46.7285 50.5951 46.1352 50.5951 45.8979 50.5951V50.3578H45.7793Z" fill="#006AC9"/>
<path d="M48.3891 50.5951V50.3578H48.2705C47.9145 50.3578 47.5586 50.3578 47.5586 49.8832V45.4932C47.5586 45.0186 47.9145 45.0186 48.2705 45.0186H48.3891V44.7812C48.0332 44.7812 47.5586 44.7812 47.084 44.7812C46.728 44.7812 46.2534 44.7812 45.8975 44.7812V45.0186H46.0161C46.3721 45.0186 46.728 45.0186 46.728 45.4932V49.8832C46.728 50.3578 46.3721 50.3578 46.0161 50.3578H45.8975V50.5951C46.2534 50.5951 46.728 50.5951 47.084 50.5951C47.4399 50.5951 47.9145 50.5951 48.3891 50.5951ZM48.3891 50.7137C48.0332 50.7137 47.4399 50.7137 47.084 50.7137C46.728 50.7137 46.1348 50.7137 45.8975 50.7137V50.3578H46.0161C46.3721 50.3578 46.6094 50.3578 46.6094 49.8832V45.4932C46.6094 45.1372 46.3721 45.0186 46.0161 45.0186H45.8975V44.7812C46.2534 44.7812 46.728 44.7812 47.2026 44.7812C47.6772 44.7812 48.1518 44.7812 48.5078 44.7812V45.0186H48.3891C48.0332 45.0186 47.7959 45.0186 47.7959 45.4932V49.8832C47.7959 50.2391 48.0332 50.3578 48.3891 50.3578H48.5078L48.3891 50.7137Z" fill="#006AC9"/>
<path d="M51.9491 50.3578C53.6102 50.3578 53.8475 48.934 53.8475 47.6288C53.8475 46.4423 53.1356 44.8999 51.8305 44.8999C50.2881 44.8999 49.9321 46.205 49.9321 47.3915C49.8135 48.934 50.5253 50.3578 51.9491 50.3578ZM51.8305 44.6626C53.6102 44.6626 55.034 45.7304 55.034 47.6288C55.034 49.5272 53.6102 50.8324 51.8305 50.8324C50.0508 50.8324 48.627 49.6459 48.627 47.7475C48.627 45.9677 50.0508 44.6626 51.8305 44.6626Z" fill="#006AC9"/>
<path d="M49.8135 47.3911C49.8135 46.2046 50.2881 44.8994 51.8305 44.8994C53.2543 44.8994 53.9662 46.4419 53.9662 47.6284C53.9662 48.8149 53.7289 50.3573 51.9491 50.3573C53.6102 50.3573 53.8475 48.9335 53.8475 47.747C53.8475 46.5605 53.1356 45.0181 51.8305 45.0181C50.2881 45.0181 49.9321 46.3232 49.8135 47.3911C49.9321 48.9335 50.5253 50.3573 51.9491 50.3573C50.5253 50.476 49.8135 48.9335 49.8135 47.3911ZM48.627 47.747C48.627 45.9673 50.0508 44.5435 51.8305 44.5435C50.0508 44.6621 48.7456 45.9673 48.627 47.747C48.7456 49.5268 50.0508 50.7132 51.8305 50.7132C53.6102 50.7132 55.034 49.4081 55.034 47.5097C55.034 45.73 53.6102 44.6621 51.8305 44.6621C53.6102 44.6621 55.1527 45.8486 55.1527 47.6284C55.1527 49.6454 53.7289 50.9505 51.9491 50.9505C50.0508 50.8319 48.627 49.6454 48.627 47.747Z" fill="#006AC9"/>
<path d="M60.7299 48.934V45.7304C60.7299 45.0185 60.2553 44.8999 60.018 44.8999H59.7807V44.6626C60.1366 44.6626 60.6112 44.6626 60.9672 44.6626C61.3231 44.6626 61.6791 44.6626 62.035 44.6626V44.8999H61.9164C61.5604 44.8999 61.2045 45.0185 61.2045 45.9677V49.7645C61.2045 50.0018 61.2045 50.3578 61.2045 50.5951H60.8485L56.4585 45.7304V49.1713C56.4585 49.8832 56.5771 50.1205 57.289 50.1205H57.4077V50.3578C57.0517 50.3578 56.6958 50.3578 56.3398 50.3578C55.9839 50.3578 55.6279 50.3578 55.1533 50.3578H55.272C55.8652 50.3578 55.9839 50.0018 55.9839 49.2899V45.7304C55.9839 45.2558 55.6279 45.0185 55.272 45.0185H55.1533V44.7812C55.5093 44.7812 55.7466 44.7812 56.1025 44.7812C56.3398 44.7812 56.5771 44.7812 56.8144 44.7812L60.7299 48.934Z" fill="#006AC9"/>
<path d="M60.848 50.7137H61.0853C61.0853 50.4764 61.0853 50.1205 61.0853 49.8832V46.0864C61.0853 45.0186 61.5599 45.0186 61.9159 45.0186H62.0345V44.7812C61.6786 44.7812 61.3226 44.7812 61.0853 44.7812C60.7294 44.7812 60.3734 44.7812 59.8988 44.7812V45.0186H60.0175C60.2548 45.0186 60.848 45.1372 60.848 45.8491V49.0526L57.0512 44.7812C56.8139 44.7812 56.5766 44.7812 56.3393 44.7812C55.9834 44.7812 55.7461 44.7812 55.3901 44.7812V45.0186H55.5088C55.8647 45.0186 56.3393 45.3745 56.3393 45.8491V49.4086C56.3393 50.1205 56.102 50.4764 55.5088 50.4764H55.3901V50.7137C55.7461 50.7137 56.102 50.7137 56.458 50.7137C56.8139 50.7137 57.1699 50.7137 57.5258 50.7137V50.4764H57.4072C56.6953 50.4764 56.5766 50.2391 56.5766 49.4086V45.8491L60.848 50.7137ZM61.204 50.8324H60.848L56.5766 46.0864V49.5272C56.5766 50.2391 56.6953 50.4764 57.2885 50.4764H57.5258V50.7137C57.1699 50.7137 56.8139 50.7137 56.458 50.7137C56.102 50.7137 55.7461 50.7137 55.2715 50.7137V50.3578H55.3901C55.9834 50.3578 56.102 50.0018 56.102 49.2899V45.7304C56.102 45.2558 55.7461 45.0186 55.3901 45.0186H55.2715V44.7812C55.6274 44.7812 55.9834 44.7812 56.2207 44.7812C56.458 44.7812 56.6953 44.7812 57.0512 44.7812L60.7294 48.934V45.8491C60.7294 45.1372 60.2548 45.1372 60.0175 45.1372H59.7802V44.8999C60.1361 44.8999 60.6107 44.8999 60.9667 44.8999C61.3226 44.8999 61.6786 44.8999 62.0345 44.8999V45.1372H61.9159C61.5599 45.1372 61.204 45.1372 61.204 46.205V50.0018C61.204 50.2391 61.204 50.4764 61.204 50.8324Z" fill="#006AC9"/>
<path d="M64.644 45.73L63.8134 48.1029H65.4745L64.644 45.73ZM63.4575 49.4081C63.3388 49.6454 63.2202 49.8827 63.2202 50.12C63.2202 50.3573 63.5761 50.3573 63.8134 50.3573H63.9321V50.5946C63.5761 50.5946 63.2202 50.5946 62.8642 50.5946C62.5083 50.5946 62.271 50.5946 61.915 50.5946V50.3573C62.271 50.3573 62.5083 50.12 62.6269 49.764L63.9321 45.8486C64.0507 45.4927 64.1694 45.1367 64.288 44.7808C64.5253 44.6621 64.8813 44.5435 65.1186 44.4248C65.1186 44.4248 65.1186 44.4248 65.2372 44.4248C65.2372 44.5435 65.2372 44.5435 65.3559 44.6621L66.8983 49.0521C67.017 49.2894 67.1356 49.6454 67.2543 49.8827C67.3729 50.3573 67.6102 50.3573 67.8475 50.3573V50.5946C67.4916 50.5946 67.1356 50.5946 66.661 50.5946C66.3051 50.5946 65.8305 50.5946 65.3559 50.5946V50.3573H65.4745C65.7118 50.3573 65.9491 50.3573 65.9491 50.12C65.9491 50.0013 65.8305 49.764 65.8305 49.5267L65.4745 48.5775H63.5761L63.4575 49.4081Z" fill="#006AC9"/>
<path d="M63.9321 48.103H65.3559L64.644 45.8486L63.9321 48.103ZM63.8134 48.103L64.644 45.6113L65.4745 48.103H63.8134ZM65.4745 50.5946C65.9491 50.5946 66.3051 50.5946 66.661 50.5946C67.017 50.5946 67.3729 50.5946 67.8475 50.5946V50.3573C67.6102 50.3573 67.3729 50.2387 67.2543 50.0014C67.1356 49.7641 67.017 49.4081 66.8983 49.1708L65.3559 44.7808C65.3559 44.6621 65.3559 44.6621 65.2372 44.5435C65.1186 44.6621 64.7626 44.7808 64.5253 44.8994C64.5253 45.2554 64.288 45.6113 64.1694 45.9673L62.8642 49.8827C62.7456 50.2386 62.3896 50.4759 62.1523 50.4759V50.7132C62.3896 50.7132 62.7456 50.7132 62.9829 50.7132C63.3388 50.7132 63.6948 50.7132 63.9321 50.7132V50.4759C63.6948 50.4759 63.2202 50.4759 63.2202 50.12C63.2202 50.0013 63.3388 49.7641 63.4575 49.4081L63.6948 48.4589H65.7118L66.0678 49.4081C66.1864 49.6454 66.1864 49.8827 66.1864 50.0014C66.1864 50.2387 65.8305 50.2387 65.5932 50.2387V50.5946H65.4745ZM67.9662 50.7132C67.6102 50.7132 67.2543 50.7132 66.7797 50.7132C66.4237 50.7132 65.9491 50.7132 65.4745 50.7132V50.3573H65.5932C65.8305 50.3573 66.0678 50.3573 66.0678 50.12C66.0678 50.0013 65.9491 49.7641 65.9491 49.5268L65.5932 48.5776H63.6948L63.4575 49.4081C63.3388 49.6454 63.2202 49.8827 63.2202 50.0014C63.2202 50.2387 63.5761 50.2387 63.8134 50.2387H63.9321V50.4759C63.5761 50.4759 63.2202 50.4759 62.8642 50.4759C62.5083 50.4759 62.271 50.4759 61.915 50.4759V50.3573C62.271 50.3573 62.5083 50.12 62.6269 49.8827L63.9321 45.9673C64.0507 45.6113 64.1694 45.2554 64.288 44.8994C64.5253 44.7808 64.8813 44.6621 65.1186 44.5435C65.1186 44.5435 65.1186 44.5435 65.2372 44.5435H65.3559C65.3559 44.6621 65.3559 44.6621 65.4745 44.7808L67.017 49.1708C67.1356 49.5268 67.2543 49.7641 67.3729 50.0014C67.4916 50.2387 67.6102 50.3573 67.8475 50.3573H67.9662V50.7132Z" fill="#006AC9"/>
<path d="M70.102 49.8832C70.102 50.2391 70.3393 50.3578 70.5766 50.3578C70.9326 50.3578 71.2885 50.3578 71.6445 50.3578C72.0004 50.3578 72.3564 50.1205 72.475 49.8832C72.5937 49.6459 72.7123 49.4086 72.7123 49.2899H72.9496C72.831 49.7645 72.7123 50.2391 72.5937 50.7137C71.8818 50.7137 71.0512 50.7137 70.3393 50.7137C69.6274 50.7137 68.7969 50.7137 68.085 50.7137V50.3578H68.2036C68.5596 50.3578 68.7969 50.3578 68.7969 49.7645V45.3745C68.7969 44.8999 68.4409 44.8999 68.2036 44.8999H68.085V44.6626C68.5596 44.6626 68.9155 44.6626 69.3901 44.6626C69.8647 44.6626 70.2207 44.6626 70.6953 44.6626V44.8999H70.458C70.102 44.8999 69.8647 44.8999 69.8647 45.3745V49.8832H70.102Z" fill="#006AC9"/>
<path d="M72.5941 50.5951C72.7128 50.1205 72.8314 49.6459 72.9501 49.2899H72.8314C72.8314 49.5272 72.7128 49.6459 72.5941 49.8832C72.4755 50.1205 72.1195 50.3578 71.7636 50.3578C71.5263 50.3578 71.289 50.3578 71.1703 50.3578C71.0517 50.3578 70.8144 50.3578 70.6958 50.3578C70.4585 50.3578 70.1025 50.2391 70.1025 49.8832V45.4932C70.1025 45.0186 70.3398 45.0186 70.6958 45.0186H70.8144V44.7812C70.3398 44.7812 69.9839 44.7812 69.5093 44.7812C69.0347 44.7812 68.6787 44.7812 68.2041 44.7812V45.0186H68.3228C68.6787 45.0186 69.0347 45.0186 69.0347 45.4932V49.8832C69.0347 50.4764 68.6787 50.4764 68.3228 50.4764H68.2041V50.7137C68.916 50.7137 69.6279 50.7137 70.4585 50.7137C71.1703 50.5951 71.8822 50.5951 72.5941 50.5951ZM72.7128 50.7137C72.0009 50.7137 71.1703 50.7137 70.4585 50.7137C69.7466 50.7137 68.916 50.7137 68.2041 50.7137V50.3578H68.3228C68.6787 50.3578 68.916 50.3578 68.916 49.8832V45.4932C68.916 45.1372 68.6787 45.0186 68.3228 45.0186H68.2041V44.7812C68.6787 44.7812 69.1533 44.7812 69.5093 44.7812C69.9839 44.7812 70.3398 44.7812 70.8144 44.7812V45.0186H70.5771C70.2211 45.0186 69.9838 45.0186 69.9838 45.4932V49.8832C69.9838 50.2391 70.2212 50.2391 70.4585 50.3578C70.5771 50.3578 70.8144 50.3578 70.933 50.3578C71.1703 50.3578 71.4076 50.3578 71.5263 50.3578C71.8822 50.3578 72.1195 50.1205 72.3568 49.8832C72.4755 49.6459 72.5941 49.5272 72.5941 49.2899H72.8314C72.9501 49.7645 72.8314 50.2391 72.7128 50.7137Z" fill="#006AC9"/>
<path d="M72.7124 45.374C72.9497 45.374 72.9497 45.2554 72.9497 45.1367C72.9497 45.0181 72.831 44.8994 72.831 44.8994H72.7124V45.374ZM72.4751 45.8486C72.5937 45.8486 72.5937 45.8486 72.5937 45.73V45.0181C72.5937 44.8994 72.5937 44.8994 72.4751 44.8994H72.9497C73.0683 44.8994 73.3056 45.0181 73.3056 45.1367C73.3056 45.2554 73.187 45.374 73.0683 45.374L73.187 45.6113C73.3056 45.73 73.3056 45.8486 73.4243 45.8486H73.3056C73.187 45.8486 73.187 45.73 72.9497 45.4927H72.831V45.73C72.831 45.8486 72.831 45.73 72.9497 45.8486H72.4751ZM72.831 46.0859C73.187 46.0859 73.5429 45.73 73.5429 45.374C73.5429 45.0181 73.187 44.6621 72.831 44.6621C72.4751 44.6621 72.1191 45.0181 72.1191 45.374C72.2378 45.73 72.4751 46.0859 72.831 46.0859ZM72.831 44.5435C73.3056 44.5435 73.7802 44.8994 73.7802 45.4927C73.7802 46.0859 73.4243 46.3232 72.831 46.3232C72.2378 46.3232 71.8818 45.9673 71.8818 45.4927C71.8818 45.0181 72.3564 44.5435 72.831 44.5435Z" fill="#006AC9"/>
<path d="M52.7795 12.508C52.7795 8.71124 51.2371 5.2704 48.6268 2.54145C46.1352 0.999003 43.1689 0.0498047 40.084 0.0498047H33.2023C25.0155 0.0498047 18.3711 6.10095 18.3711 14.881C18.3711 18.5592 19.7949 21.8814 22.0492 24.4917C24.4222 26.1528 27.2698 27.3393 30.3547 27.8139C24.3036 26.5087 19.7949 21.1695 19.7949 14.6437C19.7949 7.16879 25.846 1.11765 33.2023 1.11765C40.6773 1.11765 46.7284 7.16879 46.7284 14.6437C46.7284 22 40.9146 27.9325 33.5583 28.0512C33.7956 28.0512 33.9142 28.0512 34.1515 28.0512C44.3554 28.1698 52.7795 21.1695 52.7795 12.508Z" fill="#004A97"/>
<path d="M33.0832 0.0498047C24.8963 0.0498047 18.252 6.10095 18.252 14.881C18.252 18.4405 19.5571 21.7627 21.8114 24.2544C21.9301 24.373 22.0487 24.4917 22.1674 24.6103C24.5404 26.2714 27.2693 27.3393 30.3542 27.9325C24.3031 26.6274 19.7944 21.2881 19.7944 14.7624C19.7944 7.28744 25.8455 1.2363 33.2018 1.2363C40.6768 1.2363 46.7279 7.28744 46.7279 14.7624C46.7279 22.1187 40.9141 28.0512 33.5578 28.1698C33.7951 28.1698 33.9137 28.1698 34.151 28.1698C34.7443 28.1698 35.3375 28.1698 35.9308 28.0512C43.7617 26.1528 48.745 18.2032 47.3212 9.77909C46.6093 5.86365 44.7109 2.54145 41.9819 0.168454C41.3887 0.049804 40.7954 0.0498047 40.2022 0.0498047H33.0832Z" fill="#006AC9"/>
</svg>
