<svg width="84" height="51" viewBox="0 0 84 51" fill="none" xmlns="http://www.w3.org/2000/svg">
<path d="M83.0988 25.5001C83.0988 39.1743 72.0543 50.3503 58.2486 50.3503C44.5744 50.3503 33.3984 39.1743 33.3984 25.5001C33.3984 11.8259 44.443 0.649902 58.1171 0.649902C72.0543 0.649902 83.0988 11.8259 83.0988 25.5001Z" fill="#FFB600"/>
<path d="M58.2486 0.649902C71.9228 0.649902 83.0988 11.8259 83.0988 25.5001C83.0988 39.1743 72.0543 50.3503 58.2486 50.3503C44.5744 50.3503 33.3984 39.1743 33.3984 25.5001" fill="#F7981D"/>
<path d="M58.248 0.649902C71.9222 0.649902 83.0982 11.8259 83.0982 25.5001C83.0982 39.1743 72.0537 50.3503 58.248 50.3503" fill="#FF8500"/>
<path d="M24.8528 0.649902C11.3102 0.781385 0.265625 11.8259 0.265625 25.5001C0.265625 39.1743 11.3102 50.3503 25.1158 50.3503C31.5585 50.3503 37.3437 47.8521 41.8141 43.9076C42.7345 43.1187 43.5234 42.1984 44.3123 41.278H39.1844C38.527 40.4891 37.8696 39.5687 37.3437 38.7798H46.153C46.6789 37.9909 47.2049 37.0705 47.5993 36.1502H35.8974C35.5029 35.3613 35.1085 34.4409 34.8455 33.5205H48.5197C49.3086 31.0223 49.8345 28.3927 49.8345 25.6316C49.8345 23.7908 49.5715 22.0815 49.3086 20.3723H34.0566C34.1881 19.4519 34.4511 18.663 34.714 17.7426H48.3882C48.1252 16.8222 47.7308 15.9019 47.3363 15.113H35.7659C36.1603 14.1926 36.6863 13.4037 37.2122 12.4833H46.0215C45.4956 11.5629 44.8382 10.6426 44.0493 9.85367H39.1844C39.9733 8.9333 40.7622 8.1444 41.6826 7.35551C37.3437 3.27955 31.427 0.912867 24.9843 0.912867C24.9843 0.649902 24.9843 0.649902 24.8528 0.649902Z" fill="#FF5050"/>
<path d="M0.265625 25.5003C0.265625 39.1745 11.3102 50.3505 25.1158 50.3505C31.5585 50.3505 37.3437 47.8523 41.8141 43.9079C42.7345 43.119 43.5234 42.1986 44.3123 41.2782H39.1844C38.527 40.4893 37.8696 39.5689 37.3437 38.78H46.153C46.6789 37.9911 47.2049 37.0708 47.5993 36.1504H35.8974C35.5029 35.3615 35.1085 34.4411 34.8455 33.5207H48.5197C49.3086 31.0226 49.8345 28.3929 49.8345 25.6318C49.8345 23.791 49.5715 22.0818 49.3086 20.3725H34.0566C34.1881 19.4521 34.4511 18.6632 34.714 17.7428H48.3882C48.1252 16.8225 47.7308 15.9021 47.3363 15.1132H35.7659C36.1603 14.1928 36.6863 13.4039 37.2122 12.4835H46.0215C45.4956 11.5632 44.8382 10.6428 44.0493 9.85389H39.1844C39.9733 8.93352 40.7622 8.14462 41.6826 7.35573C37.3437 3.27977 31.427 0.913086 24.9843 0.913086H24.8528" fill="#E52836"/>
<path d="M25.1165 50.3505C31.5591 50.3505 37.3443 47.8523 41.8148 43.9079C42.7351 43.119 43.524 42.1986 44.3129 41.2782H39.1851C38.5277 40.4893 37.8703 39.5689 37.3443 38.78H46.1537C46.6796 37.9911 47.2055 37.0708 47.6 36.1504H35.898C35.5036 35.3615 35.1091 34.4411 34.8462 33.5207H48.5204C49.3093 31.0226 49.8352 28.3929 49.8352 25.6318C49.8352 23.791 49.5722 22.0818 49.3093 20.3725H34.0573C34.1888 19.4521 34.4517 18.6632 34.7147 17.7428H48.3889C48.1259 16.8225 47.7315 15.9021 47.337 15.1132H35.7666C36.161 14.1928 36.6869 13.4039 37.2129 12.4835H46.0222C45.4963 11.5632 44.8389 10.6428 44.05 9.85389H39.1851C39.974 8.93352 40.7629 8.14462 41.6833 7.35573C37.3443 3.27977 31.4276 0.913086 24.985 0.913086H24.8535" fill="#CB2026"/>
<path d="M33.9253 31.8117L34.3197 29.5765C34.1883 29.5765 33.9253 29.7079 33.6623 29.7079C32.742 29.7079 32.6105 29.182 32.742 28.9191L33.5308 24.3172H34.9772L35.3716 21.819H34.0568L34.3197 20.2412H31.6901C31.6901 20.2412 30.1123 28.9191 30.1123 29.9709C30.1123 31.5487 31.0327 32.2061 32.216 32.2061C33.0049 32.2061 33.6623 31.9431 33.9253 31.8117Z" fill="white"/>
<path d="M34.8457 27.6042C34.8457 31.2858 37.3439 32.2061 39.4476 32.2061C41.4198 32.2061 42.2087 31.8117 42.2087 31.8117L42.7347 29.3135C42.7347 29.3135 41.2883 29.9709 39.9735 29.9709C37.0809 29.9709 37.6068 27.8672 37.6068 27.8672H42.9976C42.9976 27.8672 43.3921 26.1579 43.3921 25.5005C43.3921 23.7913 42.4717 21.6875 39.5791 21.6875C36.8179 21.4246 34.8457 24.3172 34.8457 27.6042ZM39.4476 23.7913C40.8939 23.7913 40.6309 25.5005 40.6309 25.632H37.7383C37.7383 25.5005 38.0013 23.7913 39.4476 23.7913Z" fill="white"/>
<path d="M56.1456 31.8114L56.6715 28.9188C56.6715 28.9188 55.3567 29.5762 54.4363 29.5762C52.5956 29.5762 51.8067 28.1299 51.8067 26.5521C51.8067 23.3965 53.3845 21.6873 55.2252 21.6873C56.54 21.6873 57.5919 22.4762 57.5919 22.4762L57.9864 19.715C57.9864 19.715 56.4086 19.0576 54.9623 19.0576C51.9382 19.0576 48.9141 21.6873 48.9141 26.6836C48.9141 29.9707 50.4919 32.2059 53.6474 32.2059C54.6993 32.2059 56.1456 31.8114 56.1456 31.8114Z" fill="white"/>
<path d="M19.4622 21.4248C17.6214 21.4248 16.3066 21.9507 16.3066 21.9507L15.9121 24.1859C15.9121 24.1859 17.0955 23.66 18.8047 23.66C19.7251 23.66 20.514 23.7915 20.514 24.5804C20.514 25.1063 20.3825 25.2378 20.3825 25.2378C20.3825 25.2378 19.5936 25.2378 19.1992 25.2378C16.964 25.2378 14.4658 26.1582 14.4658 29.1823C14.4658 31.549 16.0436 32.0749 16.964 32.0749C18.8047 32.0749 19.5936 30.8915 19.7251 30.8915L19.5936 31.9434H21.9603L23.0122 24.7119C23.0122 21.5563 20.3825 21.4248 19.4622 21.4248ZM19.9881 27.3415C19.9881 27.736 19.7251 29.8397 18.1473 29.8397C17.3584 29.8397 17.0955 29.1823 17.0955 28.7878C17.0955 28.1304 17.4899 27.21 19.4622 27.21C19.8566 27.3415 19.9881 27.3415 19.9881 27.3415Z" fill="white"/>
<path d="M25.5094 32.075C26.1669 32.075 29.4539 32.2065 29.4539 28.6565C29.4539 25.3694 26.2983 26.0268 26.2983 24.712C26.2983 24.0546 26.8243 23.7916 27.7447 23.7916C28.1391 23.7916 29.5854 23.9231 29.5854 23.9231L29.9799 21.5564C29.9799 21.5564 29.0595 21.2935 27.4817 21.2935C25.5094 21.2935 23.5372 22.0824 23.5372 24.712C23.5372 27.7361 26.8243 27.4731 26.8243 28.6565C26.8243 29.4454 25.9039 29.5769 25.2465 29.5769C24.0631 29.5769 22.8798 29.1824 22.8798 29.1824L22.4854 31.5491C22.6168 31.8121 23.2742 32.075 25.5094 32.075Z" fill="white"/>
<path d="M77.9711 19.3208L77.4451 22.8708C77.4451 22.8708 76.3933 21.556 74.947 21.556C72.5803 21.556 70.4766 24.4486 70.4766 27.8672C70.4766 29.9709 71.5284 32.2061 73.7636 32.2061C75.3414 32.2061 76.2618 31.1542 76.2618 31.1542L76.1303 32.0746H78.76L80.7322 19.4523L77.9711 19.3208ZM76.7877 26.2894C76.7877 27.7357 76.1303 29.5764 74.684 29.5764C73.7636 29.5764 73.2377 28.7875 73.2377 27.4727C73.2377 25.369 74.1581 24.0542 75.3414 24.0542C76.2618 24.0542 76.7877 24.7116 76.7877 26.2894Z" fill="white"/>
<path d="M5.13 31.9431L6.70779 22.4764L6.97076 31.9431H8.81151L12.2301 22.4764L10.7837 31.9431H13.5449L15.6486 19.3208H11.3097L8.68003 27.0783L8.54855 19.3208H4.73556L2.63184 31.9431H5.13Z" fill="white"/>
<path d="M45.8897 31.9436C46.6786 27.6047 46.8101 24.0547 48.6508 24.7121C48.9138 23.0028 49.3082 22.3454 49.5712 21.688C49.5712 21.688 49.4397 21.688 49.0453 21.688C47.8619 21.688 46.9415 23.2658 46.9415 23.2658L47.2045 21.8195H44.7063L42.9971 32.0751H45.8897V31.9436Z" fill="white"/>
<path d="M62.1936 21.4248C60.3528 21.4248 59.038 21.9507 59.038 21.9507L58.6436 24.1859C58.6436 24.1859 59.8269 23.66 61.5362 23.66C62.4566 23.66 63.2455 23.7915 63.2455 24.5804C63.2455 25.1063 63.114 25.2378 63.114 25.2378C63.114 25.2378 62.3251 25.2378 61.9306 25.2378C59.6954 25.2378 57.1973 26.1582 57.1973 29.1823C57.1973 31.549 58.7751 32.0749 59.6954 32.0749C61.5362 32.0749 62.3251 30.8915 62.4566 30.8915L62.3251 31.9434H64.6918L65.7436 24.7119C65.8751 21.5563 63.114 21.4248 62.1936 21.4248ZM62.851 27.3415C62.851 27.736 62.588 29.8397 61.0103 29.8397C60.2214 29.8397 59.9584 29.1823 59.9584 28.7878C59.9584 28.1304 60.3528 27.21 62.3251 27.21C62.7195 27.3415 62.7195 27.3415 62.851 27.3415Z" fill="white"/>
<path d="M67.9795 31.9436C68.7684 27.6047 68.8999 24.0547 70.7407 24.7121C71.0036 23.0028 71.3981 22.3454 71.661 21.688C71.661 21.688 71.5296 21.688 71.1351 21.688C69.9518 21.688 69.0314 23.2658 69.0314 23.2658L69.2944 21.8195H66.7962L65.0869 32.0751H67.9795V31.9436Z" fill="white"/>
<path d="M29.8486 29.9709C29.8486 31.5487 30.769 32.2061 31.9524 32.2061C32.8727 32.2061 33.6616 31.9431 33.9246 31.8117L34.319 29.5765C34.1876 29.5765 33.9246 29.7079 33.6616 29.7079C32.7412 29.7079 32.6098 29.182 32.7412 28.9191L33.5301 24.3172H34.9764L35.3709 21.819H34.0561L34.319 20.2412" fill="#DCE5E5"/>
<path d="M36.1592 27.6042C36.1592 31.2858 37.3425 32.2061 39.4462 32.2061C41.4185 32.2061 42.2074 31.8117 42.2074 31.8117L42.7333 29.3135C42.7333 29.3135 41.287 29.9709 39.9722 29.9709C37.0796 29.9709 37.6055 27.8672 37.6055 27.8672H42.9963C42.9963 27.8672 43.3907 26.1579 43.3907 25.5005C43.3907 23.7913 42.4703 21.6875 39.5777 21.6875C36.8166 21.4246 36.1592 24.3172 36.1592 27.6042ZM39.4462 23.7913C40.8925 23.7913 41.1555 25.5005 41.1555 25.632H37.737C37.737 25.5005 37.9999 23.7913 39.4462 23.7913Z" fill="#DCE5E5"/>
<path d="M56.1452 31.8114L56.6712 28.9188C56.6712 28.9188 55.3563 29.5762 54.436 29.5762C52.5952 29.5762 51.8063 28.1299 51.8063 26.5521C51.8063 23.3965 53.3841 21.6873 55.2248 21.6873C56.5397 21.6873 57.5915 22.4762 57.5915 22.4762L57.986 19.715C57.986 19.715 56.4082 19.0576 54.9619 19.0576C51.9378 19.0576 50.2285 21.6873 50.2285 26.6836C50.2285 29.9707 50.4915 32.2059 53.6471 32.2059C54.6989 32.2059 56.1452 31.8114 56.1452 31.8114Z" fill="#DCE5E5"/>
<path d="M15.9121 24.3176C15.9121 24.3176 17.0955 23.7917 18.8047 23.7917C19.7251 23.7917 20.514 23.9232 20.514 24.7121C20.514 25.238 20.3825 25.3695 20.3825 25.3695C20.3825 25.3695 19.5936 25.3695 19.1992 25.3695C16.964 25.3695 14.4658 26.2899 14.4658 29.314C14.4658 31.6807 16.0436 32.2066 16.964 32.2066C18.8047 32.2066 19.5936 31.0232 19.7251 31.0232L19.5936 32.0751H21.9603L23.0122 24.8436C23.0122 21.8195 20.3825 21.688 19.3307 21.688M21.3029 27.3417C21.3029 27.7362 19.7251 29.8399 18.1473 29.8399C17.3584 29.8399 17.0955 29.1825 17.0955 28.788C17.0955 28.1306 17.4899 27.2103 19.4622 27.2103C19.8566 27.3417 21.3029 27.3417 21.3029 27.3417Z" fill="#DCE5E5"/>
<path d="M22.6172 31.8121C22.6172 31.8121 23.4061 32.075 25.6413 32.075C26.2987 32.075 29.5858 32.2065 29.5858 28.6565C29.5858 25.3694 26.4302 26.0268 26.4302 24.712C26.4302 24.0546 26.9561 23.7916 27.8765 23.7916C28.2709 23.7916 29.7172 23.9231 29.7172 23.9231L30.1117 21.5564C30.1117 21.5564 29.1913 21.2935 27.6135 21.2935C25.6413 21.2935 24.9839 22.0824 24.9839 24.712C24.9839 27.7361 26.9561 27.4731 26.9561 28.6565C26.9561 29.4454 26.0357 29.5769 25.3783 29.5769" fill="#DCE5E5"/>
<path d="M77.4455 22.8707C77.4455 22.8707 76.3937 21.5559 74.9473 21.5559C72.5807 21.5559 71.7918 24.4485 71.7918 27.867C71.7918 29.9707 71.5288 32.2059 73.764 32.2059C75.3418 32.2059 76.2622 31.1541 76.2622 31.1541L76.1307 32.0745H78.7603L80.7326 19.4521M77.314 26.2892C77.314 27.7355 76.1307 29.5763 74.6844 29.5763C73.764 29.5763 73.2381 28.7874 73.2381 27.4726C73.2381 25.3689 74.1584 24.054 75.3418 24.054C76.2622 24.054 77.314 24.7114 77.314 26.2892Z" fill="#DCE5E5"/>
<path d="M5.13 31.9431L6.70779 22.4764L6.97076 31.9431H8.81151L12.2301 22.4764L10.7837 31.9431H13.5449L15.6486 19.3208H12.3615L8.68003 27.0783L8.54855 19.3208H7.10224L2.63184 31.9431H5.13Z" fill="#DCE5E5"/>
<path d="M43.1279 31.9436H45.8891C46.678 27.6047 46.8094 24.0547 48.6502 24.7121C48.9132 23.0028 49.3076 22.3454 49.5706 21.688C49.5706 21.688 49.4391 21.688 49.0446 21.688C47.8613 21.688 46.9409 23.2658 46.9409 23.2658L47.2039 21.8195" fill="#DCE5E5"/>
<path d="M58.6436 24.3176C58.6436 24.3176 59.8269 23.7917 61.5362 23.7917C62.4566 23.7917 63.2455 23.9232 63.2455 24.7121C63.2455 25.238 63.114 25.3695 63.114 25.3695C63.114 25.3695 62.3251 25.3695 61.9306 25.3695C59.6954 25.3695 57.1973 26.2899 57.1973 29.314C57.1973 31.6807 58.7751 32.2066 59.6954 32.2066C61.5362 32.2066 62.3251 31.0232 62.4566 31.0232L62.3251 32.0751H64.6918L65.7436 24.8436C65.7436 21.8195 63.114 21.688 62.0621 21.688M64.0344 27.3417C64.0344 27.7362 62.4566 29.8399 60.8788 29.8399C60.0899 29.8399 59.8269 29.1825 59.8269 28.788C59.8269 28.1306 60.2214 27.2103 62.1936 27.2103C62.7195 27.3417 64.0344 27.3417 64.0344 27.3417Z" fill="#DCE5E5"/>
<path d="M65.2168 31.9436H67.9779C68.7668 27.6047 68.8983 24.0547 70.7391 24.7121C71.002 23.0028 71.3965 22.3454 71.6594 21.688C71.6594 21.688 71.528 21.688 71.1335 21.688C69.9502 21.688 69.0298 23.2658 69.0298 23.2658L69.2928 21.8195" fill="#DCE5E5"/>
</svg>
