<svg width="131" height="43" viewBox="0 0 131 43" fill="none" xmlns="http://www.w3.org/2000/svg">
<path fill-rule="evenodd" clip-rule="evenodd" d="M52.967 0.850045L46.3648 42.1787H56.9277L63.5307 0.850045H52.967ZM37.4773 0.850045L27.4062 29.2755L26.2149 23.1545L26.2158 23.1565L25.9533 21.7846C24.7344 19.109 21.9115 14.0238 16.581 9.68391C15.0051 8.40113 13.4165 7.30636 11.8809 6.37121L21.0339 42.1787H32.0397L48.8464 0.850045H37.4773ZM78.703 12.3237C78.703 7.65112 88.9905 8.25153 93.5109 10.7887L95.0181 1.91243C95.0181 1.91243 90.3661 0.110352 85.517 0.110352C80.2747 0.110352 67.8263 2.44549 67.8263 13.7919C67.8263 24.4703 82.437 24.603 82.437 30.2093C82.437 35.8155 69.3327 34.8136 65.0082 31.2771L63.4365 40.5549C63.4365 40.5549 68.153 42.89 75.3612 42.89C82.5686 42.89 93.445 39.0867 93.445 28.7411C93.445 17.9959 78.703 16.9951 78.703 12.3237ZM121.808 0.850045H113.315C109.393 0.850045 108.438 3.93003 108.438 3.93003L92.6853 42.1787H103.695L105.898 36.0402H119.327L120.566 42.1787H130.265L121.808 0.850045ZM108.942 27.5591L114.493 12.093L117.615 27.5591H108.942Z" fill="#005BAC"/>
<path fill-rule="evenodd" clip-rule="evenodd" d="M21.9955 4.74121C21.9955 4.74121 21.5733 1.01123 17.0663 1.01123H0.6918L0.5 1.71223C0.5 1.71223 8.37087 3.40483 15.922 9.74622C23.1381 15.807 25.4922 23.3622 25.4922 23.3622L21.9955 4.74121Z" fill="#F6AC1D"/>
</svg>
